<?xml version="1.0" encoding="utf-8"?>
<!-- Generator: Adobe Illustrator 28.3.0, SVG Export Plug-In . SVG Version: 6.00 Build 0)  -->
<svg version="1.1" id="Capa_1" xmlns="http://www.w3.org/2000/svg" xmlns:xlink="http://www.w3.org/1999/xlink" x="0px" y="0px"
	 viewBox="0 0 1080 1080"   width="31.88"
  height="32" style="enable-background:new 0 0 1080 1080;" xml:space="preserve">
<style type="text/css">
	.st0{fill:#FFFFFF;}
	.st1{fill:#F08722;}
	
		.st2{clip-path:url(#SVGID_00000036955394853759653470000004380890095411857574_);fill:url(#SVGID_00000168815206787430198740000003146053121298299023_);}
</style>
<g>
	<g>
		<path class="st0" d="M693.62,493.83h189.96c4.78,0,9.02,4.25,9.02,9.02v74.29c0,5.3-4.25,9.02-9.02,9.02H693.62
			c-5.31,0-9.02-3.72-9.02-9.02v-74.29C684.59,498.08,688.31,493.83,693.62,493.83"/>
		<path class="st1" d="M220.3,610.04c0-61.55,48.28-111.96,108.78-115.67l32.36-0.53c12.73,0,23.35-10.61,23.35-23.35
			c0-13.26-10.61-23.88-23.35-23.88H132.75v270.08c0,5.31-3.71,9.02-9.02,9.02H49.44c-4.78,0-9.02-3.71-9.02-9.02V363.3
			c0-4.78,4.24-9.02,9.02-9.02h312c64.21,0,115.68,52,115.68,116.2c0,63.14-49.88,114.08-112.49,115.68H336.5
			c-13.27,0-23.88,10.61-23.88,23.88c0,12.73,10.61,23.35,23.88,23.35h611.26c4.78,0,9.02,4.25,9.02,9.02v74.29
			c0,5.31-4.25,9.02-9.02,9.02H336.5C272.3,725.71,220.3,674.24,220.3,610.04 M508.95,579.79h67.92c17.51,0,15.39,2.12,21.23-16.45
			c19.1-58.37,36.61-116.73,113.55-116.73h236.12c4.78,0,9.02-3.71,9.02-9.02V363.3c0-4.78-4.25-9.02-9.02-9.02H692.54
			c-88.61,0-126.82,50.41-150.7,105.59l-39.8,100.82C494.09,580.33,491.97,579.79,508.95,579.79"/>
	</g>
	<g>
		<g>
			<defs>
				<polygon id="SVGID_1_" points="684.58,633.39 684.58,725.71 964.15,725.71 1039.58,632.86 				"/>
			</defs>
			<clipPath id="SVGID_00000173138401307568650670000007083595875146848939_">
				<use xlink:href="#SVGID_1_"  style="overflow:visible;"/>
			</clipPath>
			
				<linearGradient id="SVGID_00000010992016389230649580000011299857302716597906_" gradientUnits="userSpaceOnUse" x1="1911.8093" y1="-2.3028" x2="1915.3126" y2="-2.3028" gradientTransform="matrix(93.2298 0 0 93.2298 -177530.4219 893.9829)">
				<stop  offset="0" style="stop-color:#F08722"/>
				<stop  offset="0.0577" style="stop-color:#F08722"/>
				<stop  offset="0.9972" style="stop-color:#FFFFFF"/>
				<stop  offset="1" style="stop-color:#FFFFFF"/>
			</linearGradient>
			
				<rect x="684.58" y="632.86" style="clip-path:url(#SVGID_00000173138401307568650670000007083595875146848939_);fill:url(#SVGID_00000010992016389230649580000011299857302716597906_);" width="31.88" height="32"/>
		</g>
	</g>
</g>
</svg>
